# This file uses centimeters as units for non-parametric coordinates.

mtllib Basket(Single).mtl
g default
v -3.713433 0.003712 0.992101
v -3.915065 0.763040 1.053042
v -2.617377 0.003712 0.992101
v -2.415745 0.763040 1.053042
v -2.617377 0.003712 0.059283
v -2.415745 0.763040 -0.001659
v -3.713433 0.003712 0.059283
v -3.915065 0.763040 -0.001659
v -2.463973 0.573300 1.047616
v -3.866838 0.573300 1.047616
v -3.866838 0.573300 0.003767
v -2.463973 0.573300 0.003767
v -2.415574 0.573300 1.083629
v -3.915236 0.573300 1.083629
v -3.915236 0.573300 -0.032245
v -2.415574 0.573300 -0.032245
v -3.819109 0.763040 0.985542
v -2.511702 0.763040 0.985542
v -2.511702 0.763040 0.065842
v -3.819109 0.763040 0.065842
v -3.645637 0.094619 0.929420
v -2.685173 0.094619 0.929420
v -2.685173 0.094619 0.121963
v -3.645637 0.094619 0.121963
vt 0.594023 0.034146
vt 0.626951 0.041996
vt 0.565942 0.298906
vt 0.533005 0.291117
vt 0.542068 0.750214
vt 0.575780 0.747199
vt 0.621555 0.927226
vt 0.590494 0.940681
vt 0.518782 0.487125
vt 0.552503 0.484171
vt 0.581938 0.311985
vt 0.570218 0.473537
vt 0.565833 0.499955
vt 0.586133 0.729317
vt 0.132817 0.154652
vt 0.159592 0.255507
vt 0.352627 0.255971
vt 0.379886 0.155246
vt 0.055284 0.429319
vt 0.159197 0.419792
vt 0.055727 0.245479
vt 0.379006 0.521111
vt 0.352231 0.420256
vt 0.131937 0.520517
vt 0.456539 0.246444
vt 0.456097 0.430284
vt 0.585883 0.040974
vt 0.528803 0.281358
vt 0.535371 0.758462
vt 0.580671 0.936634
vt 0.513216 0.496175
vt 0.534999 0.742282
vt 0.524044 0.296825
vt 0.510741 0.480182
vt 0.634611 0.061185
vt 0.581415 0.285212
vt 0.595089 0.754557
vt 0.635004 0.911540
vt 0.174081 0.649014
vt 0.316288 0.649486
vt 0.315727 0.818640
vt 0.173520 0.818168
vt 0.056048 0.618071
vt 0.055284 0.848328
vt 0.326575 0.527899
vt 0.164601 0.527362
vt 0.433760 0.849583
vt 0.434524 0.619326
vt 0.163233 0.939755
vt 0.325208 0.940293
vn 0.000000 0.159147 0.987255
vn 0.000000 0.159147 0.987255
vn 0.000000 0.159147 0.987255
vn 0.000000 0.159147 0.987255
vn 1.000000 0.000903 0.000000
vn 1.000000 0.000903 0.000000
vn 1.000000 0.000903 0.000000
vn 1.000000 0.000903 0.000000
vn 0.000000 0.159147 -0.987255
vn 0.000000 0.159147 -0.987255
vn 0.000000 0.159147 -0.987255
vn 0.000000 0.159147 -0.987255
vn -1.000000 0.000903 0.000000
vn -1.000000 0.000903 0.000000
vn -1.000000 0.000903 0.000000
vn -1.000000 0.000903 0.000000
vn 0.000000 1.000000 0.000000
vn 0.000000 1.000000 0.000000
vn 0.000000 1.000000 0.000000
vn 0.000000 1.000000 0.000000
vn 0.000000 1.000000 0.000000
vn 0.000000 1.000000 0.000000
vn 0.000000 1.000000 0.000000
vn 0.000000 1.000000 0.000000
vn 0.000000 -0.097006 0.995284
vn 0.000000 -0.097006 0.995284
vn 0.000000 -0.097006 0.995284
vn 0.000000 -0.097006 0.995284
vn -0.965593 -0.260059 0.000000
vn -0.965593 -0.260059 0.000000
vn -0.965593 -0.260059 0.000000
vn -0.965593 -0.260059 0.000000
vn 0.000000 -0.097006 -0.995284
vn 0.000000 -0.097006 -0.995284
vn 0.000000 -0.097006 -0.995284
vn 0.000000 -0.097006 -0.995284
vn 0.965593 -0.260059 0.000000
vn 0.965593 -0.260059 0.000000
vn 0.965593 -0.260059 0.000000
vn 0.965593 -0.260059 0.000000
vn 0.000000 -1.000000 0.000000
vn 0.000000 -1.000000 0.000000
vn 0.000000 -1.000000 0.000000
vn 0.000000 -1.000000 0.000000
vn 0.000000 -1.000000 0.000000
vn 0.000000 -1.000000 0.000000
vn 0.000000 -1.000000 0.000000
vn 0.000000 -1.000000 0.000000
vn 0.000000 -1.000000 0.000000
vn 0.000000 -1.000000 0.000000
vn 0.000000 -1.000000 0.000000
vn 0.000000 -1.000000 0.000000
vn 0.000000 -1.000000 0.000000
vn 0.000000 -1.000000 0.000000
vn 0.000000 -1.000000 0.000000
vn 0.000000 -1.000000 0.000000
vn 0.000000 1.000000 0.000000
vn 0.000000 1.000000 0.000000
vn 0.000000 1.000000 0.000000
vn 0.000000 1.000000 0.000000
vn 0.000000 1.000000 0.000000
vn 0.000000 1.000000 0.000000
vn 0.000000 1.000000 0.000000
vn 0.000000 1.000000 0.000000
vn 0.000000 1.000000 0.000000
vn 0.000000 1.000000 0.000000
vn 0.000000 1.000000 0.000000
vn 0.000000 1.000000 0.000000
vn 0.000000 0.083666 -0.996494
vn 0.000000 0.083666 -0.996494
vn 0.000000 0.083666 -0.996494
vn 0.000000 0.083666 -0.996494
vn -0.967934 0.251203 0.000000
vn -0.967934 0.251203 0.000000
vn -0.967934 0.251203 0.000000
vn -0.967934 0.251203 0.000000
vn 0.000000 0.083666 0.996494
vn 0.000000 0.083666 0.996494
vn 0.000000 0.083666 0.996494
vn 0.000000 0.083666 0.996494
vn 0.967934 0.251203 0.000000
vn 0.967934 0.251203 0.000000
vn 0.967934 0.251203 0.000000
vn 0.967934 0.251203 0.000000
vn 0.000000 -1.000000 0.000000
vn 0.000000 -1.000000 0.000000
vn 0.000000 -1.000000 0.000000
vn 0.000000 -1.000000 0.000000
s off
g BasketSingle001 Exported
usemtl BasketSingle001SG
f 13/1/1 4/2/2 2/3/3 14/4/4
f 16/5/5 6/6/6 4/7/7 13/8/8
f 15/9/9 8/10/10 6/6/11 16/5/12
f 14/4/13 2/3/14 8/10/15 15/9/16
f 2/3/17 17/11/18 20/12/19 8/10/20
f 8/10/21 20/13/22 19/14/23 6/6/24
f 10/15/25 1/16/26 3/17/27 9/18/28
f 11/19/29 7/20/30 1/16/31 10/21/32
f 12/22/33 5/23/34 7/20/35 11/24/36
f 9/25/37 3/17/38 5/23/39 12/26/40
f 9/27/41 13/1/42 14/4/43 10/28/44
f 12/29/45 16/5/46 13/8/47 9/30/48
f 11/31/49 15/9/50 16/5/51 12/32/52
f 10/33/53 14/4/54 15/9/55 11/34/56
f 4/2/57 18/35/58 17/36/59 2/3/60
f 6/6/61 19/37/62 18/38/63 4/7/64
f 22/39/65 23/40/66 24/41/67 21/42/68
f 18/43/69 22/39/70 21/42/71 17/44/72
f 19/45/73 23/40/74 22/39/75 18/46/76
f 20/47/77 24/41/78 23/40/79 19/48/80
f 17/49/81 21/42/82 24/41/83 20/50/84
f 5/23/85 3/17/86 1/16/87 7/20/88
